# xmcd
#
# Track frame offsets:
#	150
#	23160
#	42525
#	59513
#	78805
#	95497
#	120232
#	146588
#	164142
#	187128
#	204820
#	222471
#	236723
#	254587
#
# Disc length: 3610 seconds
#
# Revision: 1
# Processed by: cddbd v1.5.1PL0 Copyright (c) Steve Scherf et al.
# Submitted via: dBpowerAMP V4.0
#
DISCID=ce0e180e
DTITLE=The Hard Working Band  - Trabalhando Duro (ao vivo)
DYEAR=2002
DGENRE=Blues
TTITLE0=Another Star
TTITLE1=Tudo Bem
TTITLE2=Until You Come Back To Me
TTITLE3=Someday We´ll All Be Free
TTITLE4=Don´t Stop Me Now
TTITLE5=Try My Side
TTITLE6=Nada de Mais
TTITLE7=Me Libertei
TTITLE8=Daniel´s Song
TTITLE9=I´m So Glad That I´m a Woman
TTITLE10=So Very Hard To Go
TTITLE11=Baby, I Need Your Lovin'
TTITLE12=Runaway
TTITLE13=Happy Together
EXTD=
EXTT0=
EXTT1=
EXTT2=
EXTT3=
EXTT4=
EXTT5=
EXTT6=
EXTT7=
EXTT8=
EXTT9=
EXTT10=
EXTT11=
EXTT12=
EXTT13=
PLAYORDER=
